<svg id="Layer_1" data-name="Layer 1" xmlns="http://www.w3.org/2000/svg" viewBox="0 0 40 40"><defs><style>.cls-1{fill:#f58233;}.cls-2{fill:#fff;}</style></defs><g id="Table_expand" data-name="Table expand"><g id="Rectangle_4093" data-name="Rectangle 4093"><rect class="cls-1" width="40" height="40" rx="4"/><path class="cls-1" d="M36,40H4a4,4,0,0,1-4-4V4A4,4,0,0,1,4,0H36a4,4,0,0,1,4,4V36A4,4,0,0,1,36,40ZM4,2A2,2,0,0,0,2,4V36a2,2,0,0,0,2,2H36a2,2,0,0,0,2-2V4a2,2,0,0,0-2-2Z"/></g><g id="Group_5559" data-name="Group 5559"><polygon class="cls-2" points="9.4 30.22 9.4 20.54 11.6 20.54 11.6 28 18.98 27.93 19 30.13 9.4 30.22"/><polygon class="cls-2" points="30.65 18.46 28.45 18.46 28.45 11 21.08 11.07 21.06 8.88 30.65 8.78 30.65 18.46"/><rect class="cls-2" x="7.36" y="17.92" width="26" height="2.5" transform="translate(-7.59 20.01) rotate(-45)"/></g></g></svg>