<svg id="Layer_1" data-name="Layer 1" xmlns="http://www.w3.org/2000/svg" viewBox="0 0 30 30"><defs><style>.cls-1{fill:none;}.cls-2{fill:#81959a;}</style></defs><g id="filter"><rect id="Rectangle_3822" data-name="Rectangle 3822" class="cls-1" width="30" height="30"/><g id="noun_filter_105959" data-name="noun filter 105959"><path id="Path_26543" data-name="Path 26543" class="cls-2" d="M22.73,7.13a.28.28,0,0,0-.2-.13H8.22a.22.22,0,0,0-.2.13.29.29,0,0,0,0,.24l5.41,6.94V21a.23.23,0,0,0,.11.2L16.74,23a.18.18,0,0,0,.1,0A.14.14,0,0,0,17,23a.23.23,0,0,0,.11-.2V14.31l5.65-6.94A.26.26,0,0,0,22.73,7.13Zm-6.06,7a.33.33,0,0,0,0,.13v8.2L13.91,20.9V14.22a.65.65,0,0,0,0-.13L8.68,7.43H22.1Z"/><path class="cls-2" d="M16.87,23.3H16.8a.45.45,0,0,1-.2-.06l-3.19-1.75a.53.53,0,0,1-.26-.46V14.41L7.81,7.55A.55.55,0,0,1,7.75,7a.48.48,0,0,1,.47-.3H22.53A.57.57,0,0,1,23,7h0a.58.58,0,0,1,0,.54l-5.6,6.87v8.37a.52.52,0,0,1-.25.45A.4.4,0,0,1,16.87,23.3Zm-2.66-2.58,2.12,1.19V14.22a.71.71,0,0,1,.08-.28l0,0,5-6.17H9.29l4.81,6.18a.58.58,0,0,1,.11.28Z"/></g></g></svg>